<svg width="18" height="18" viewBox="0 0 18 18" fill="none" xmlns="http://www.w3.org/2000/svg">
<circle cx="9" cy="9" r="9" fill="#FFCC00"/>
<path d="M4.38 3.755C4.495 3.735 4.62 3.72 4.755 3.71C4.895 3.7 5.02 3.695 5.13 3.695C5.25 3.695 5.3775 3.7 5.5125 3.71C5.6525 3.72 5.78 3.735 5.895 3.755V14C5.78 14.02 5.6525 14.035 5.5125 14.045C5.3775 14.055 5.25 14.06 5.13 14.06C5.02 14.06 4.895 14.055 4.755 14.045C4.62 14.035 4.495 14.02 4.38 14V3.755ZM11.6475 13.61C11.5425 13.765 11.39 13.885 11.19 13.97C10.995 14.05 10.805 14.09 10.62 14.09C10.32 14.09 10.1025 14.0125 9.9675 13.8575C9.8375 13.6975 9.7175 13.465 9.6075 13.16L8.7675 10.9175C8.5525 10.3425 8.31 9.94 8.04 9.71C7.77 9.48 7.405 9.365 6.945 9.365C6.8 9.365 6.5725 9.37 6.2625 9.38C5.9575 9.385 5.575 9.4025 5.115 9.4325V8.4275H7.6425C8.1525 8.4275 8.5625 8.5 8.8725 8.645C9.1825 8.79 9.4325 9.005 9.6225 9.29C9.8175 9.575 9.9925 9.9275 10.1475 10.3475L10.9875 12.5525C11.1025 12.8575 11.2075 13.0825 11.3025 13.2275C11.4025 13.3725 11.5175 13.5 11.6475 13.61ZM9.3225 4.34C9.4425 4.13 9.5625 3.9725 9.6825 3.8675C9.8025 3.7625 9.9925 3.71 10.2525 3.71C10.3825 3.71 10.52 3.715 10.665 3.725C10.81 3.73 10.9575 3.7375 11.1075 3.7475L11.205 3.8825L8.8875 7.775C8.6725 8.145 8.4025 8.44 8.0775 8.66C7.7575 8.875 7.3575 8.9825 6.8775 8.9825H5.115V8.105C5.365 8.09 5.6425 8.08 5.9475 8.075C6.2575 8.07 6.535 8.065 6.78 8.06C6.93 8.06 7.04 8.03 7.11 7.97C7.18 7.905 7.2575 7.8 7.3425 7.655L9.3225 4.34ZM12.8288 13.205C12.8288 13.115 12.8413 12.9925 12.8663 12.8375C12.8913 12.6775 12.9263 12.555 12.9713 12.47C13.0663 12.415 13.1988 12.37 13.3688 12.335C13.5438 12.3 13.7063 12.2825 13.8563 12.2825C14.0013 12.2825 14.1638 12.3 14.3438 12.335C14.5288 12.37 14.6638 12.415 14.7488 12.47C14.7988 12.555 14.8338 12.6775 14.8538 12.8375C14.8788 12.9925 14.8913 13.115 14.8913 13.205C14.8913 13.295 14.8788 13.4175 14.8538 13.5725C14.8338 13.7275 14.7988 13.8475 14.7488 13.9325C14.6688 13.9875 14.5363 14.0325 14.3513 14.0675C14.1663 14.1025 14.0013 14.12 13.8563 14.12C13.7063 14.12 13.5438 14.1025 13.3688 14.0675C13.1988 14.0325 13.0663 13.9875 12.9713 13.9325C12.9263 13.8475 12.8913 13.7275 12.8663 13.5725C12.8413 13.4175 12.8288 13.295 12.8288 13.205Z" fill="black"/>
</svg>
