<svg width="162" height="32" viewBox="0 0 162 32" fill="none" xmlns="http://www.w3.org/2000/svg">
<path d="M0.735 0.264999C1.2 0.174998 1.7175 0.114998 2.2875 0.0849984C2.8725 0.0549988 3.36 0.0399989 3.75 0.0399989C4.17 0.0399989 4.6575 0.0549988 5.2125 0.0849984C5.7825 0.114998 6.3075 0.174998 6.7875 0.264999V31C6.3075 31.09 5.7825 31.15 5.2125 31.18C4.6575 31.21 4.17 31.225 3.75 31.225C3.36 31.225 2.8725 31.21 2.2875 31.18C1.7175 31.15 1.2 31.09 0.735 31V0.264999ZM23.8875 29.47C23.4975 30.07 22.92 30.535 22.155 30.865C21.405 31.18 20.64 31.3375 19.86 31.3375C18.72 31.3375 17.9025 31.045 17.4075 30.46C16.9125 29.875 16.47 28.99 16.08 27.805L14.0325 21.91C13.4925 20.35 12.8625 19.255 12.1425 18.625C11.4225 17.98 10.4625 17.6575 9.2625 17.6575C8.6925 17.6575 7.935 17.6875 6.99 17.7475C6.045 17.7925 4.95 17.86 3.705 17.95V14.1475H12.0525C13.6725 14.1475 14.955 14.38 15.9 14.845C16.86 15.31 17.6175 15.955 18.1725 16.78C18.7275 17.605 19.1925 18.58 19.5675 19.705L21.705 25.7125C21.975 26.4625 22.215 27.07 22.425 27.535C22.635 27.985 22.8525 28.3525 23.0775 28.6375C23.3175 28.9225 23.5875 29.2 23.8875 29.47ZM15.45 2.29C15.855 1.54 16.275 0.984998 16.71 0.624999C17.145 0.249998 17.8275 0.0624973 18.7575 0.0624973C19.2675 0.0624973 19.8375 0.077498 20.4675 0.107499C21.1125 0.137499 21.7275 0.182498 22.3125 0.242498L22.6725 0.692497L16.575 11.605C15.81 13 14.8425 14.1025 13.6725 14.9125C12.5025 15.7075 10.9725 16.105 9.0825 16.105H3.705V12.685C4.485 12.655 5.3025 12.6325 6.1575 12.6175C7.0125 12.6025 7.8225 12.5875 8.5875 12.5725C9.0975 12.5725 9.465 12.475 9.69 12.28C9.915 12.07 10.1775 11.7025 10.4775 11.1775L15.45 2.29ZM35.1094 0.264999C35.5744 0.189999 36.1444 0.137499 36.8194 0.107499C37.5094 0.0624991 38.1019 0.0399989 38.5969 0.0399989C39.0769 0.0399989 39.6544 0.0624991 40.3294 0.107499C41.0194 0.137499 41.5894 0.197499 42.0394 0.2875L51.9169 30.6175C51.4969 30.8575 50.9644 31.0375 50.3194 31.1575C49.6744 31.2925 49.0519 31.36 48.4519 31.36C47.4919 31.36 46.7419 31.1425 46.2019 30.7075C45.6769 30.2575 45.2269 29.395 44.8519 28.12L40.7794 14.665C40.4044 13.375 39.9919 11.935 39.5419 10.345C39.1069 8.755 38.7169 7.2925 38.3719 5.9575H38.1019C37.9519 6.7075 37.7569 7.54 37.5169 8.455C37.2919 9.355 37.0519 10.255 36.7969 11.155C36.5569 12.04 36.3394 12.8275 36.1444 13.5175L30.7669 31.045C30.3919 31.135 29.9869 31.195 29.5519 31.225C29.1169 31.255 28.6594 31.27 28.1794 31.27C27.6994 31.27 27.1819 31.2325 26.6269 31.1575C26.0719 31.0825 25.6144 30.985 25.2544 30.865L25.0519 30.55L35.1094 0.264999ZM35.0869 24.0925C34.9069 24.0925 34.6444 24.0925 34.2994 24.0925C33.9544 24.0775 33.6019 24.07 33.2419 24.07C32.8969 24.055 32.6344 24.0475 32.4544 24.0475H29.4169L31.2619 19.2775H33.9394C34.1194 19.2775 34.3669 19.2775 34.6819 19.2775C35.0119 19.2625 35.3344 19.255 35.6494 19.255C35.9794 19.24 36.2269 19.2325 36.3919 19.2325H40.2619C40.4569 19.2325 40.7119 19.24 41.0269 19.255C41.3419 19.255 41.6644 19.2625 41.9944 19.2775C42.3244 19.2775 42.5794 19.2775 42.7594 19.2775H45.5269L47.0794 24.0475H44.0419C43.8619 24.0475 43.5919 24.055 43.2319 24.07C42.8869 24.07 42.5344 24.0775 42.1744 24.0925C41.8294 24.0925 41.5669 24.0925 41.3869 24.0925H35.0869ZM56.6408 0.197498C58.3658 0.167499 60.0533 0.137499 61.7033 0.107499C63.3683 0.0624991 64.9733 0.0399989 66.5183 0.0399989C68.6633 0.0399989 70.4933 0.347499 72.0083 0.962499C73.5383 1.5775 74.7008 2.4925 75.4958 3.7075C76.3058 4.9075 76.7108 6.4075 76.7108 8.2075C76.7108 9.3175 76.4558 10.36 75.9458 11.335C75.4508 12.295 74.7758 13.09 73.9208 13.72C73.0658 14.35 72.0983 14.725 71.0183 14.845V14.1475C72.2483 14.1925 73.4033 14.59 74.4833 15.34C75.5783 16.075 76.4633 17.05 77.1383 18.265C77.8133 19.48 78.1508 20.815 78.1508 22.27C78.1508 24.16 77.7308 25.7725 76.8908 27.1075C76.0658 28.4425 74.8358 29.4625 73.2008 30.1675C71.5658 30.8725 69.5558 31.225 67.1708 31.225C65.3858 31.225 63.6308 31.2025 61.9058 31.1575C60.1958 31.1275 58.4408 31.0975 56.6408 31.0675L56.3258 30.7525V0.5125L56.6408 0.197498ZM62.2883 26.8825C63.1283 26.8675 63.9383 26.86 64.7183 26.86C65.5133 26.845 66.2333 26.8375 66.8783 26.8375C68.3033 26.8375 69.3833 26.5825 70.1183 26.0725C70.8683 25.5475 71.3783 24.91 71.6483 24.16C71.9183 23.41 72.0533 22.69 72.0533 22C72.0533 21.295 71.8958 20.5675 71.5808 19.8175C71.2808 19.0525 70.7408 18.4075 69.9608 17.8825C69.1958 17.3425 68.1158 17.0725 66.7208 17.0725H59.9708V12.6625H66.2483C67.4483 12.6625 68.3708 12.4525 69.0158 12.0325C69.6608 11.5975 70.1108 11.065 70.3658 10.435C70.6208 9.805 70.7483 9.1675 70.7483 8.5225C70.7483 7.8625 70.6283 7.225 70.3883 6.61C70.1483 5.98 69.7058 5.4625 69.0608 5.0575C68.4158 4.6525 67.4933 4.45 66.2933 4.45C65.7833 4.45 65.1458 4.45 64.3808 4.45C63.6308 4.435 62.9333 4.42 62.2883 4.405V26.8825ZM106.944 19.93C106.944 22.435 106.472 24.5575 105.527 26.2975C104.582 28.0375 103.232 29.365 101.477 30.28C99.7216 31.18 97.6141 31.63 95.1541 31.63C92.6941 31.63 90.5866 31.18 88.8316 30.28C87.0766 29.365 85.7266 28.0375 84.7816 26.2975C83.8366 24.5575 83.3641 22.435 83.3641 19.93V0.309998L83.6791 0.0174979H85.9291C87.0991 0.0174979 87.9691 0.324998 88.5391 0.939998C89.1241 1.54 89.4166 2.5075 89.4166 3.8425V19.9525C89.4166 22.2025 89.8741 23.905 90.7891 25.06C91.7191 26.215 93.1741 26.7925 95.1541 26.7925C97.1341 26.7925 98.5816 26.215 99.4966 25.06C100.427 23.905 100.892 22.2025 100.892 19.9525V0.264999C101.387 0.174998 101.897 0.114998 102.422 0.0849984C102.962 0.0549988 103.434 0.0399989 103.839 0.0399989C104.244 0.0399989 104.747 0.0549988 105.347 0.0849984C105.947 0.114998 106.479 0.174998 106.944 0.264999V19.93ZM114.026 0.264999C114.491 0.174998 115.009 0.114998 115.579 0.0849984C116.164 0.0549988 116.651 0.0399989 117.041 0.0399989C117.461 0.0399989 117.949 0.0549988 118.504 0.0849984C119.074 0.114998 119.599 0.174998 120.079 0.264999V31C119.599 31.09 119.074 31.15 118.504 31.18C117.949 31.21 117.461 31.225 117.041 31.225C116.651 31.225 116.164 31.21 115.579 31.18C115.009 31.15 114.491 31.09 114.026 31V0.264999ZM137.179 29.47C136.789 30.07 136.211 30.535 135.446 30.865C134.696 31.18 133.931 31.3375 133.151 31.3375C132.011 31.3375 131.194 31.045 130.699 30.46C130.204 29.875 129.761 28.99 129.371 27.805L127.324 21.91C126.784 20.35 126.154 19.255 125.434 18.625C124.714 17.98 123.754 17.6575 122.554 17.6575C121.984 17.6575 121.226 17.6875 120.281 17.7475C119.336 17.7925 118.241 17.86 116.996 17.95V14.1475H125.344C126.964 14.1475 128.246 14.38 129.191 14.845C130.151 15.31 130.909 15.955 131.464 16.78C132.019 17.605 132.484 18.58 132.859 19.705L134.996 25.7125C135.266 26.4625 135.506 27.07 135.716 27.535C135.926 27.985 136.144 28.3525 136.369 28.6375C136.609 28.9225 136.879 29.2 137.179 29.47ZM128.741 2.29C129.146 1.54 129.566 0.984998 130.001 0.624999C130.436 0.249998 131.119 0.0624973 132.049 0.0624973C132.559 0.0624973 133.129 0.077498 133.759 0.107499C134.404 0.137499 135.019 0.182498 135.604 0.242498L135.964 0.692497L129.866 11.605C129.101 13 128.134 14.1025 126.964 14.9125C125.794 15.7075 124.264 16.105 122.374 16.105H116.996V12.685C117.776 12.655 118.594 12.6325 119.449 12.6175C120.304 12.6025 121.114 12.5875 121.879 12.5725C122.389 12.5725 122.756 12.475 122.981 12.28C123.206 12.07 123.469 11.7025 123.769 11.1775L128.741 2.29ZM141.56 0.264999C142.01 0.174998 142.52 0.114998 143.09 0.0849984C143.675 0.0549988 144.163 0.0399989 144.553 0.0399989C144.988 0.0399989 145.475 0.0549988 146.015 0.0849984C146.57 0.114998 147.095 0.174998 147.59 0.264999V31C147.095 31.09 146.57 31.15 146.015 31.18C145.475 31.21 144.988 31.225 144.553 31.225C144.163 31.225 143.675 31.21 143.09 31.18C142.52 31.15 142.01 31.09 141.56 31V0.264999Z" fill="#111111"/>
<path d="M153.989 28.2325C153.989 27.9625 154.026 27.565 154.101 27.04C154.176 26.515 154.296 26.08 154.461 25.735C154.836 25.525 155.316 25.3525 155.901 25.2175C156.501 25.0825 157.079 25.015 157.634 25.015C158.144 25.015 158.699 25.0825 159.299 25.2175C159.914 25.3525 160.409 25.525 160.784 25.735C160.949 26.08 161.069 26.515 161.144 27.04C161.219 27.565 161.256 27.9625 161.256 28.2325C161.256 28.5025 161.219 28.9 161.144 29.425C161.069 29.95 160.949 30.3775 160.784 30.7075C160.424 30.9475 159.936 31.1275 159.321 31.2475C158.706 31.3675 158.144 31.4275 157.634 31.4275C157.079 31.4275 156.501 31.3675 155.901 31.2475C155.316 31.1275 154.836 30.9475 154.461 30.7075C154.296 30.3775 154.176 29.95 154.101 29.425C154.026 28.9 153.989 28.5025 153.989 28.2325Z" fill="#FFCC00"/>
</svg>
