<svg width="93" height="17" viewBox="0 0 93 17" fill="none" xmlns="http://www.w3.org/2000/svg">
<path d="M8.5 0L10.4084 5.87336L16.584 5.87336L11.5878 9.50329L13.4962 15.3766L8.5 11.7467L3.50383 15.3766L5.41219 9.50329L0.416019 5.87336L6.59163 5.87336L8.5 0Z" fill="#111111"/>
<path d="M27.5 0L29.4084 5.87336L35.584 5.87336L30.5878 9.50329L32.4962 15.3766L27.5 11.7467L22.5038 15.3766L24.4122 9.50329L19.416 5.87336L25.5916 5.87336L27.5 0Z" fill="#111111"/>
<path d="M46.5 0L48.4084 5.87336L54.584 5.87336L49.5878 9.50329L51.4962 15.3766L46.5 11.7467L41.5038 15.3766L43.4122 9.50329L38.416 5.87336L44.5916 5.87336L46.5 0Z" fill="#111111"/>
<path d="M65.5 0L67.4084 5.87336L73.584 5.87336L68.5878 9.50329L70.4962 15.3766L65.5 11.7467L60.5038 15.3766L62.4122 9.50329L57.416 5.87336L63.5916 5.87336L65.5 0Z" fill="#111111"/>
<path d="M84.5 1.61804L85.9328 6.02786L86.0451 6.37336H86.4084L91.0451 6.37336L87.2939 9.09878L87 9.31231L87.1123 9.6578L88.5451 14.0676L84.7939 11.3422L84.5 11.1287L84.2061 11.3422L80.4549 14.0676L81.8877 9.6578L82 9.31231L81.7061 9.09878L77.9549 6.37336L82.5916 6.37336H82.9549L83.0672 6.02786L84.5 1.61804Z" stroke="black"/>
</svg>
